<?xml version="1.0" encoding="utf-8"?>
<!-- Generator: Adobe Illustrator 23.0.3, SVG Export Plug-In . SVG Version: 6.00 Build 0)  -->
<svg version="1.1" id="Calque_1" xmlns="http://www.w3.org/2000/svg" xmlns:xlink="http://www.w3.org/1999/xlink" x="0px" y="0px"
	 viewBox="0 0 173 137" style="enable-background:new 0 0 173 137;" xml:space="preserve">
<style type="text/css">
	.st0{fill:#689D71;}
</style>
<g>
	<path class="st0" d="M131.7,36.9c-6.3-0.3-12.4-1.6-18.3-4.6c18.3-7.9,48.8-2,55.5,24.5c5.7,22.1-10.6,43.9-34.1,45.5
		c-3.8,0.3-5.5,1.3-6.3,5.1c-1.7,7.1-4,14.1-6.1,21.1c-0.6,1.9-0.9,3.2-3.6,2c-14.1-6.7-28.9-7-43.9-3.5c-9.3,2.1-15.1-0.6-18-8
		c-1.1-2.7-0.9-4,2.3-4.9c7.3-2.2,14.4-4.8,20.3-10.2c-4.3,1.4-8.5,2.9-12.8,4.1c-27,7.5-58.6-14.9-63.4-41.1
		c-5-27.2,14-54.7,42.1-59.4c18.6-3.1,34.3,1.2,47,16.2C103.4,36.7,116.8,40.8,131.7,36.9z"/>
</g>
<image style="overflow:visible;" width="225" height="225" xlink:href="D:\AE\Clients\Alexandre Roth\Bodega\Logo\download.png"  transform="matrix(1 0 0 1 453 -179)">
</image>
</svg>
